<?xml version="1.0" encoding="UTF-8" standalone="no"?>
<!-- Created with Inkscape (http://www.inkscape.org/) -->

<svg
   xmlns:dc="http://purl.org/dc/elements/1.1/"
   xmlns:cc="http://creativecommons.org/ns#"
   xmlns:rdf="http://www.w3.org/1999/02/22-rdf-syntax-ns#"
   xmlns:svg="http://www.w3.org/2000/svg"
   xmlns="http://www.w3.org/2000/svg"
   xmlns:xlink="http://www.w3.org/1999/xlink"
   xmlns:inkscape="http://www.inkscape.org/namespaces/inkscape"
   version="1.1"
   width="24"
   height="19"
   id="svg2"
   style="enable-background:new">
  <defs
     id="defs4">
    <linearGradient
       id="linearGradient5216">
      <stop
         id="stop5218"
         style="stop-color:#000000;stop-opacity:1"
         offset="0" />
      <stop
         id="stop5220"
         style="stop-color:#353535;stop-opacity:1"
         offset="1" />
    </linearGradient>
    <linearGradient
       id="linearGradient3987">
      <stop
         id="stop3989"
         style="stop-color:#000000;stop-opacity:1"
         offset="0" />
      <stop
         id="stop3991"
         style="stop-color:#000000;stop-opacity:0"
         offset="1" />
    </linearGradient>
    <inkscape:path-effect
       effect="spiro"
       id="path-effect3958" />
    <inkscape:path-effect
       effect="spiro"
       id="path-effect3954" />
    <linearGradient
       id="linearGradient3822">
      <stop
         id="stop3824"
         style="stop-color:#000000;stop-opacity:1"
         offset="0" />
      <stop
         id="stop3826"
         style="stop-color:#7f7f7f;stop-opacity:1"
         offset="1" />
    </linearGradient>
    <inkscape:path-effect
       effect="spiro"
       id="path-effect3009" />
    <inkscape:path-effect
       effect="spiro"
       id="path-effect3005" />
    <inkscape:path-effect
       effect="spiro"
       id="path-effect3001" />
    <inkscape:path-effect
       effect="spiro"
       id="path-effect2997" />
    <linearGradient
       x1="8.6765928"
       y1="1032.4597"
       x2="8.6765928"
       y2="1051.2769"
       id="linearGradient3828"
       xlink:href="#linearGradient3822"
       gradientUnits="userSpaceOnUse" />
    <linearGradient
       x1="8.6765928"
       y1="1032.4597"
       x2="8.6765928"
       y2="1051.2769"
       id="linearGradient3860"
       xlink:href="#linearGradient3822-9"
       gradientUnits="userSpaceOnUse"
       gradientTransform="translate(0,-1031.3622)" />
    <linearGradient
       id="linearGradient3822-9">
      <stop
         id="stop3824-7"
         style="stop-color:#000000;stop-opacity:1"
         offset="0" />
      <stop
         id="stop3826-6"
         style="stop-color:#ffffff;stop-opacity:1"
         offset="1" />
    </linearGradient>
    <linearGradient
       x1="8.6765928"
       y1="1032.4597"
       x2="8.6765928"
       y2="1051.2769"
       id="linearGradient3895"
       xlink:href="#linearGradient3822-9"
       gradientUnits="userSpaceOnUse"
       gradientTransform="translate(-2.0625,-1032.4172)" />
    <linearGradient
       x1="8.5602455"
       y1="1033.3771"
       x2="8.6873779"
       y2="1051.1333"
       id="linearGradient3993"
       xlink:href="#linearGradient3987"
       gradientUnits="userSpaceOnUse" />
    <linearGradient
       x1="8.5602455"
       y1="1033.3771"
       x2="8.6873779"
       y2="1051.1333"
       id="linearGradient5214"
       xlink:href="#linearGradient5216"
       gradientUnits="userSpaceOnUse"
       gradientTransform="matrix(0.91113878,0,0,0.91113878,2.4731375,93.367015)" />
    <linearGradient
       x1="8.5602455"
       y1="1033.3771"
       x2="8.6873779"
       y2="1051.1333"
       id="linearGradient5214-5"
       xlink:href="#linearGradient5216-5"
       gradientUnits="userSpaceOnUse"
       gradientTransform="translate(-0.95599429,0.76576835)" />
    <linearGradient
       id="linearGradient5216-5">
      <stop
         id="stop5218-4"
         style="stop-color:#000000;stop-opacity:1"
         offset="0" />
      <stop
         id="stop5220-2"
         style="stop-color:#353535;stop-opacity:1"
         offset="1" />
    </linearGradient>
    <inkscape:path-effect
       effect="spiro"
       id="path-effect3958-1" />
    <filter
       x="-0.18438987"
       y="-0.17581429"
       width="1.3687797"
       height="1.3516285"
       color-interpolation-filters="sRGB"
       id="filter3876">
      <feGaussianBlur
         id="feGaussianBlur3878"
         stdDeviation="1.1796199" />
    </filter>
    <linearGradient
       x1="8.5602455"
       y1="1033.3771"
       x2="8.6873779"
       y2="1051.1333"
       id="linearGradient5214-7"
       xlink:href="#linearGradient5216-6"
       gradientUnits="userSpaceOnUse"
       gradientTransform="translate(1.044005,-1.2342633)" />
    <linearGradient
       id="linearGradient5216-6">
      <stop
         id="stop5218-1"
         style="stop-color:#000000;stop-opacity:1"
         offset="0" />
      <stop
         id="stop5220-6"
         style="stop-color:#353535;stop-opacity:1"
         offset="1" />
    </linearGradient>
    <inkscape:path-effect
       effect="spiro"
       id="path-effect3958-14" />
    <linearGradient
       x1="8.5602455"
       y1="1033.3771"
       x2="8.6873779"
       y2="1051.1333"
       id="linearGradient5214-2"
       xlink:href="#linearGradient5216-4"
       gradientUnits="userSpaceOnUse"
       gradientTransform="matrix(0.91113878,0,0,0.91113878,2.4731375,93.367015)" />
    <linearGradient
       id="linearGradient5216-4">
      <stop
         id="stop5218-0"
         style="stop-color:#000000;stop-opacity:1"
         offset="0" />
      <stop
         id="stop5220-67"
         style="stop-color:#353535;stop-opacity:1"
         offset="1" />
    </linearGradient>
    <inkscape:path-effect
       effect="spiro"
       id="path-effect3958-15" />
    <linearGradient
       x1="8.5602455"
       y1="1033.3771"
       x2="8.6873779"
       y2="1051.1333"
       id="linearGradient5214-3"
       xlink:href="#linearGradient5216-9"
       gradientUnits="userSpaceOnUse"
       gradientTransform="matrix(0.91113878,0,0,0.91113878,2.4731375,93.367015)" />
    <linearGradient
       id="linearGradient5216-9">
      <stop
         id="stop5218-8"
         style="stop-color:#000000;stop-opacity:1"
         offset="0" />
      <stop
         id="stop5220-7"
         style="stop-color:#353535;stop-opacity:1"
         offset="1" />
    </linearGradient>
    <inkscape:path-effect
       effect="spiro"
       id="path-effect3958-4" />
    <filter
       color-interpolation-filters="sRGB"
       id="filter4005">
      <feBlend
         in2="BackgroundImage"
         mode="lighten"
         id="feBlend4007" />
    </filter>
    <linearGradient
       x1="8.5602455"
       y1="1033.3771"
       x2="8.6873779"
       y2="1051.1333"
       id="linearGradient4188"
       xlink:href="#linearGradient5216"
       gradientUnits="userSpaceOnUse"
       gradientTransform="matrix(0.91113878,0,0,0.91113878,2.4731375,93.367015)" />
    <linearGradient
       x1="8.5602455"
       y1="1033.3771"
       x2="8.6873779"
       y2="1051.1333"
       id="linearGradient4188-0"
       xlink:href="#linearGradient5216-2"
       gradientUnits="userSpaceOnUse"
       gradientTransform="matrix(0.91113878,0,0,0.91113878,2.4731375,93.367015)" />
    <linearGradient
       id="linearGradient5216-2">
      <stop
         id="stop5218-01"
         style="stop-color:#000000;stop-opacity:1"
         offset="0" />
      <stop
         id="stop5220-5"
         style="stop-color:#353535;stop-opacity:1"
         offset="1" />
    </linearGradient>
    <inkscape:path-effect
       effect="spiro"
       id="path-effect3958-8" />
    <linearGradient
       x1="8.5602455"
       y1="1033.3771"
       x2="8.6873779"
       y2="1051.1333"
       id="linearGradient4229"
       xlink:href="#linearGradient5216-2"
       gradientUnits="userSpaceOnUse"
       gradientTransform="matrix(0.91113878,0,0,0.91113878,2.4731375,-939.99509)" />
    <linearGradient
       x1="8.5602455"
       y1="1033.3771"
       x2="8.6873779"
       y2="1051.1333"
       id="linearGradient4257"
       xlink:href="#linearGradient5216-2"
       gradientUnits="userSpaceOnUse"
       gradientTransform="matrix(0.91113878,0,0,0.91113878,2.4731375,-939.99509)" />
    <linearGradient
       x1="8.5602455"
       y1="1033.3771"
       x2="8.6873779"
       y2="1051.1333"
       id="linearGradient4188-8"
       xlink:href="#linearGradient5216-23"
       gradientUnits="userSpaceOnUse"
       gradientTransform="matrix(0.91113878,0,0,0.91113878,2.4731375,93.367015)" />
    <linearGradient
       id="linearGradient5216-23">
      <stop
         id="stop5218-6"
         style="stop-color:#000000;stop-opacity:1"
         offset="0" />
      <stop
         id="stop5220-4"
         style="stop-color:#353535;stop-opacity:1"
         offset="1" />
    </linearGradient>
    <inkscape:path-effect
       effect="spiro"
       id="path-effect3958-9" />
    <filter
       x="-0.23356047"
       y="-0.22269814"
       width="1.467121"
       height="1.4453963"
       color-interpolation-filters="sRGB"
       id="filter4356">
      <feGaussianBlur
         id="feGaussianBlur4358"
         stdDeviation="1.3614127" />
    </filter>
    <linearGradient
       x1="8.5602455"
       y1="1033.3771"
       x2="8.6873779"
       y2="1051.1333"
       id="linearGradient4188-1"
       xlink:href="#linearGradient5216-53"
       gradientUnits="userSpaceOnUse"
       gradientTransform="matrix(0.91113878,0,0,0.91113878,2.4731375,93.367015)" />
    <linearGradient
       id="linearGradient5216-53">
      <stop
         id="stop5218-5"
         style="stop-color:#000000;stop-opacity:1"
         offset="0" />
      <stop
         id="stop5220-73"
         style="stop-color:#353535;stop-opacity:1"
         offset="1" />
    </linearGradient>
    <inkscape:path-effect
       effect="spiro"
       id="path-effect3958-98" />
    <linearGradient
       x1="8.5602455"
       y1="1033.3771"
       x2="8.6873779"
       y2="1051.1333"
       id="linearGradient4229-4"
       xlink:href="#linearGradient5216-53"
       gradientUnits="userSpaceOnUse"
       gradientTransform="matrix(0.91113878,0,0,0.91113878,2.4731375,-939.99509)" />
  </defs>
  <metadata
     id="metadata7">
    <rdf:RDF>
      <cc:Work
         rdf:about="">
        <dc:format>image/svg+xml</dc:format>
        <dc:type
           rdf:resource="http://purl.org/dc/dcmitype/StillImage" />
        <dc:title></dc:title>
      </cc:Work>
    </rdf:RDF>
  </metadata>
  <g
     id="layer2"
     style="display:inline;filter:url(#filter4005)">
    <path
       d="M 6.2371361,9.5555932 C 5.7594228,9.1468951 5.3950303,8.6070786 5.1946191,8.0111932 5.0071881,7.4539017 4.9630406,6.8518715 5.0438342,6.2694828 5.1246278,5.6870942 5.3286448,5.1243663 5.6193482,4.6132932 6.3125645,3.3945797 7.5378293,2.4691233 8.9190379,2.2281368 9.6096422,2.1076436 10.330574,2.1557587 10.995099,2.3790515 c 0.664525,0.2232928 1.270739,0.6225587 1.728809,1.1532417 0.502633,0.5823092 0.819904,1.31193 0.96524,2.0673113 0.145337,0.7553813 0.123809,1.5365724 5.8e-5,2.2957887 -0.167096,1.025141 -0.51667,2.010507 -0.766592,3.0186608 -0.249921,1.008154 -0.399265,2.071181 -0.160091,3.081939 0.145759,0.61598 0.436655,1.199358 0.855067,1.674341 0.418412,0.474982 0.964976,0.839231 1.570083,1.025032 0.605108,0.185802 1.267401,0.190122 1.869499,-0.0052 0.602098,-0.195334 1.13988,-0.59217 1.489179,-1.12006 0.248931,-0.376206 0.401443,-0.815649 0.439091,-1.265182 0.03765,-0.449533 -0.03965,-0.908222 -0.222536,-1.320592 -0.182889,-0.41237 -0.470992,-0.777564 -0.829465,-1.051415 -0.358473,-0.27385 -0.786572,-0.455789 -1.232521,-0.523811"
       id="path3956-08"
       style="fill:none;stroke:url(#linearGradient4229-4);stroke-width:2;stroke-linecap:round;stroke-linejoin:miter;stroke-miterlimit:4;stroke-opacity:1;stroke-dasharray:none;display:inline" />
    <path
       d="M 6.2371361,9.5555932 C 5.7594228,9.1468951 5.3950303,8.6070786 5.1946191,8.0111932 5.0071881,7.4539017 4.9630406,6.8518715 5.0438342,6.2694828 5.1246278,5.6870942 5.3286448,5.1243663 5.6193482,4.6132932 6.3125645,3.3945797 7.5378293,2.4691233 8.9190379,2.2281368 9.6096422,2.1076436 10.330574,2.1557587 10.995099,2.3790515 c 0.664525,0.2232928 1.270739,0.6225587 1.728809,1.1532417 0.502633,0.5823092 0.819904,1.31193 0.96524,2.0673113 0.145337,0.7553813 0.123809,1.5365724 5.8e-5,2.2957887 -0.167096,1.025141 -0.51667,2.010507 -0.766592,3.0186608 -0.249921,1.008154 -0.399265,2.071181 -0.160091,3.081939 0.145759,0.61598 0.436655,1.199358 0.855067,1.674341 0.418412,0.474982 0.964976,0.839231 1.570083,1.025032 0.605108,0.185802 1.267401,0.190122 1.869499,-0.0052 0.602098,-0.195334 1.13988,-0.59217 1.489179,-1.12006 0.248931,-0.376206 0.401443,-0.815649 0.439091,-1.265182 0.03765,-0.449533 -0.03965,-0.908222 -0.222536,-1.320592 -0.182889,-0.41237 -0.470992,-0.777564 -0.829465,-1.051415 -0.358473,-0.27385 -0.786572,-0.455789 -1.232521,-0.523811"
       id="path4379"
       style="fill:none;stroke:url(#linearGradient4229-4);stroke-width:2;stroke-linecap:round;stroke-linejoin:miter;stroke-miterlimit:4;stroke-opacity:1;stroke-dasharray:none;display:inline" />
  </g>
  <g
     transform="translate(0,-1033.3622)"
     id="layer1"
     style="display:none">
    <path
       d="m 6.2371361,1042.9177 c -0.4777133,-0.4087 -0.8421058,-0.9485 -1.042517,-1.5444 -0.187431,-0.5573 -0.2315785,-1.1593 -0.1507849,-1.7417 0.080794,-0.5824 0.2848106,-1.1451 0.575514,-1.6562 0.6932163,-1.2187 1.9184811,-2.1442 3.2996897,-2.3852 0.6906043,-0.1204 1.4115361,-0.072 2.0760611,0.151 0.664525,0.2233 1.270739,0.6225 1.728809,1.1532 0.502633,0.5823 0.819904,1.3119 0.96524,2.0673 0.145337,0.7554 0.123809,1.5366 5.8e-5,2.2958 -0.167096,1.0251 -0.51667,2.0105 -0.766592,3.0187 -0.249921,1.0081 -0.399265,2.0711 -0.160091,3.0819 0.145759,0.616 0.436655,1.1994 0.855067,1.6743 0.418412,0.475 0.964976,0.8393 1.570083,1.0251 0.605108,0.1858 1.267401,0.1901 1.869499,-0.01 0.602098,-0.1954 1.13988,-0.5922 1.489179,-1.1201 0.248931,-0.3762 0.401443,-0.8156 0.439091,-1.2652 0.03765,-0.4495 -0.03965,-0.9082 -0.222536,-1.3206 -0.182889,-0.4123 -0.470992,-0.7775 -0.829465,-1.0514 -0.358473,-0.2738 -0.786572,-0.4558 -1.232521,-0.5238"
       id="path3956"
       style="fill:none;stroke:url(#linearGradient4188);stroke-width:2;stroke-linecap:round;stroke-linejoin:miter;stroke-miterlimit:4;stroke-opacity:1;stroke-dasharray:none" />
  </g>
  <g
     transform="translate(0,-4)"
     id="layer3"
     style="display:none">
    <path
       d="M 6.2371361,13.555593 C 5.7594228,13.146895 5.3950303,12.607078 5.1946191,12.011193 5.0071881,11.453902 4.9630406,10.851871 5.0438342,10.269483 5.1246278,9.6870941 5.3286448,9.1243662 5.6193482,8.6132932 6.3125645,7.3945796 7.5378293,6.4691232 8.9190379,6.2281368 9.6096422,6.1076436 10.330574,6.1557586 10.995099,6.3790515 c 0.664525,0.2232928 1.270739,0.6225587 1.728809,1.1532417 0.502633,0.5823092 0.819904,1.31193 0.96524,2.0673112 0.145337,0.7553816 0.123809,1.5365726 5.8e-5,2.2957886 -0.167096,1.025141 -0.51667,2.010507 -0.766592,3.018661 -0.249921,1.008154 -0.399265,2.071181 -0.160091,3.081939 0.145759,0.61598 0.436655,1.199358 0.855067,1.674341 0.418412,0.474982 0.964976,0.83923 1.570083,1.025032 0.605108,0.185802 1.267401,0.190122 1.869499,-0.0052 0.602098,-0.195334 1.13988,-0.59217 1.489179,-1.12006 0.248931,-0.376206 0.401443,-0.815649 0.439091,-1.265182 0.03765,-0.449533 -0.03965,-0.908222 -0.222536,-1.320592 -0.182889,-0.41237 -0.470992,-0.777564 -0.829465,-1.051415 -0.358473,-0.273851 -0.786572,-0.455789 -1.232521,-0.523811"
       id="path4278"
       style="fill:none;stroke:#ffffff;stroke-width:2;stroke-linecap:round;stroke-linejoin:miter;stroke-miterlimit:4;stroke-opacity:1;stroke-dasharray:none;display:inline;filter:url(#filter4356)" />
    <path
       d="M 6.2371361,13.555593 C 5.7594228,13.146895 5.3950303,12.607078 5.1946191,12.011193 5.0071881,11.453902 4.9630406,10.851871 5.0438342,10.269483 5.1246278,9.6870941 5.3286448,9.1243662 5.6193482,8.6132932 6.3125645,7.3945796 7.5378293,6.4691232 8.9190379,6.2281368 9.6096422,6.1076436 10.330574,6.1557586 10.995099,6.3790515 c 0.664525,0.2232928 1.270739,0.6225587 1.728809,1.1532417 0.502633,0.5823092 0.819904,1.31193 0.96524,2.0673112 0.145337,0.7553816 0.123809,1.5365726 5.8e-5,2.2957886 -0.167096,1.025141 -0.51667,2.010507 -0.766592,3.018661 -0.249921,1.008154 -0.399265,2.071181 -0.160091,3.081939 0.145759,0.61598 0.436655,1.199358 0.855067,1.674341 0.418412,0.474982 0.964976,0.83923 1.570083,1.025032 0.605108,0.185802 1.267401,0.190122 1.869499,-0.0052 0.602098,-0.195334 1.13988,-0.59217 1.489179,-1.12006 0.248931,-0.376206 0.401443,-0.815649 0.439091,-1.265182 0.03765,-0.449533 -0.03965,-0.908222 -0.222536,-1.320592 -0.182889,-0.41237 -0.470992,-0.777564 -0.829465,-1.051415 -0.358473,-0.273851 -0.786572,-0.455789 -1.232521,-0.523811"
       id="path3956-0"
       style="fill:none;stroke:#ffffff;stroke-width:2;stroke-linecap:round;stroke-linejoin:miter;stroke-miterlimit:4;stroke-opacity:1;stroke-dasharray:none;display:inline" />
  </g>
</svg>
